# xmcd
#
# Track frame offsets: 
#        150
#        19221
#        40497
#        65410
#        86273
#        106871
#        125716
#        140535
#        159285
#        176988
#        197431
#        214793
#        232862
#        254131
#        274606
#        294372
#
# Disc length: 4175 seconds
#
# Revision: 1
# Processed by: cddbd v1.5.2PL0 Copyright (c) Steve Scherf et al.
# Submitted via: ExactAudioCopyFreeDBPlugin 1.0
#
DISCID=e5104d10
DTITLE=Various Artist - Salsa en la 10a ave. NY'09
DYEAR=2009
DGENRE=Salsa
TTITLE0=Don Perignon and la Puertorriquena - Perigon Anejo
TTITLE1=Orq Mulenze - Dígale
TTITLE2=Gilberto Santa Rosa - Pensando en tí
TTITLE3=Estación Candela - La Salud
TTITLE4=En Gran Combo de Puerto Rico - Esa Mujer
TTITLE5=Peptín y la Ley Mayor - Me Llamo Pepitín
TTITLE6=Luisito Carrión and la Mundial - Mi Cosita
TTITLE7=NG2 - Buscando Amor
TTITLE8=Óscar D'León - Ni Frío, Ni Calor
TTITLE9=Costa Brava - Ya no me duele el Dolor
TTITLE10=Sonora Latina - Hasta que se rompa el Cuero
TTITLE11=Bobby Perez and Tres con Cache - Cada local con su Tema
TTITLE12=Paquito Acosta - Ya no te Estoy Creyendo 
TTITLE13=Estrellas de Envidia - Juan Pachanga
TTITLE14=Kim del los Santos - Un Instante y Nada Más
TTITLE15=Alex León - Todo por Nada
EXTD=YEAR: 2009
EXTT0=
EXTT1=
EXTT2=
EXTT3=
EXTT4=
EXTT5=
EXTT6=
EXTT7=
EXTT8=
EXTT9=
EXTT10=
EXTT11=
EXTT12=
EXTT13=
EXTT14=
EXTT15=
PLAYORDER=
